<?xml version="1.0" standalone="no"?>
<!DOCTYPE svg PUBLIC "-//W3C//DTD SVG 20010904//EN"
 "http://www.w3.org/TR/2001/REC-SVG-20010904/DTD/svg10.dtd">
<svg version="1.0" xmlns="http://www.w3.org/2000/svg"
 width="320.000000pt" height="320.000000pt" viewBox="0 0 320.000000 320.000000"
 preserveAspectRatio="xMidYMid meet">

<g transform="translate(0.000000,320.000000) scale(0.100000,-0.100000)"
fill="#000000" stroke="none">
<path d="M0 1600 l0 -1600 1600 0 1600 0 0 1600 0 1600 -1600 0 -1600 0 0
-1600z m1655 911 l31 -124 39 -12 c143 -43 276 -176 300 -300 3 -16 -4 -5 -16
25 -50 125 -135 209 -255 251 -31 11 -58 18 -60 16 -2 -2 1 -19 6 -38 8 -27
19 -39 57 -57 81 -38 150 -113 176 -188 13 -35 19 -40 63 -51 91 -22 249 -64
264 -70 9 -3 -8 -11 -40 -19 -30 -8 -86 -23 -125 -34 -38 -10 -89 -24 -112
-30 -30 -7 -43 -16 -43 -28 0 -30 -58 -118 -101 -155 -23 -20 -61 -44 -85 -54
-27 -11 -45 -26 -48 -39 -3 -12 -9 -30 -12 -39 -6 -15 -2 -16 27 -10 59 13
142 61 192 111 46 46 107 154 107 187 0 9 4 18 9 22 14 8 -8 -63 -36 -119 -49
-96 -171 -194 -270 -214 l-36 -8 -33 -129 c-19 -72 -34 -134 -34 -139 0 -24
-14 10 -35 91 -49 187 -39 169 -98 188 -137 44 -232 137 -282 277 l-22 63
-132 34 c-72 18 -128 37 -126 41 3 4 63 22 133 40 l129 31 12 50 c34 131 177
271 304 294 40 8 35 -2 72 145 32 128 38 145 43 130 3 -8 19 -71 37 -139z
m-1166 -1514 c-2 -1 -12 -9 -21 -16 -15 -12 -18 -11 -18 3 0 10 8 16 22 16 12
0 19 -1 17 -3z m61 -102 c0 -93 -2 -105 -17 -105 -16 0 -18 12 -18 105 0 93 2
105 18 105 15 0 17 -12 17 -105z m60 88 c0 -11 -3 -14 -8 -7 -4 6 -14 14 -22
17 -10 4 -8 6 8 6 15 1 22 -5 22 -16z m70 -88 c0 -93 -2 -105 -17 -105 -16 0
-18 12 -18 105 0 93 2 105 18 105 15 0 17 -12 17 -105z m78 89 c29 -20 28 -48
-4 -73 -15 -12 -22 -21 -15 -21 12 0 64 -100 56 -108 -9 -10 -36 22 -59 69
-22 46 -22 48 -4 63 23 20 23 41 -2 66 -24 24 -5 27 28 4z m198 -89 c24 -55
44 -101 44 -102 0 -2 -8 -3 -17 -3 -13 0 -29 28 -59 100 -23 54 -39 102 -36
105 14 13 27 -7 68 -100z m104 91 c0 -8 14 -48 30 -89 17 -42 30 -83 30 -92 0
-37 -24 -5 -56 75 -18 47 -38 93 -44 103 -9 14 -6 17 15 17 15 0 25 -6 25 -14z
m134 -1 c-4 -8 -8 -15 -10 -15 -2 0 -4 7 -4 15 0 8 4 15 10 15 5 0 7 -7 4 -15z
m74 -90 c1 -98 0 -105 -18 -105 -19 0 -20 7 -20 105 0 95 2 105 18 105 17 0
19 -10 20 -105z m102 83 c0 -17 -3 -19 -9 -9 -5 7 -15 17 -22 22 -10 6 -8 9 9
9 16 0 22 -6 22 -22z m82 -83 c-3 -91 -6 -105 -20 -105 -15 0 -17 13 -17 105
0 98 1 105 20 105 19 0 20 -6 17 -105z m230 0 c-3 -91 -6 -105 -20 -105 -15 0
-17 13 -17 105 0 98 1 105 20 105 19 0 20 -6 17 -105z m170 13 l3 -93 35 -18
35 -19 -35 6 c-56 10 -67 30 -73 129 -4 80 -3 87 14 87 16 0 19 -10 21 -92z
m132 77 c-4 -8 -7 -15 -9 -15 -2 0 -5 7 -9 15 -3 9 0 15 9 15 9 0 12 -6 9 -15z
m121 -82 c32 -54 63 -101 69 -105 6 -4 0 -8 -14 -8 -19 0 -30 9 -45 37 -11 20
-25 41 -30 47 -6 6 -16 22 -22 36 -7 14 -22 40 -33 58 -21 31 -21 32 -3 32 14
0 36 -28 78 -97z m65 93 c0 -11 -19 -15 -25 -6 -3 5 1 10 9 10 9 0 16 -2 16
-4z m62 -60 c-6 -87 10 -133 51 -146 l32 -10 -35 5 c-58 9 -73 33 -79 130 -6
81 -5 85 14 85 19 0 21 -5 17 -64z m141 44 c-3 -11 -7 -20 -8 -20 -1 0 -5 9
-8 20 -3 12 0 20 8 20 8 0 11 -8 8 -20z m79 -85 c3 -99 2 -105 -17 -105 -19 0
-20 7 -20 105 0 92 2 105 17 105 14 0 17 -14 20 -105z m76 89 c29 -20 28 -48
-3 -72 -19 -15 -22 -21 -11 -25 15 -6 60 -97 52 -105 -9 -9 -26 10 -54 62 -27
51 -28 54 -10 65 24 15 23 46 -2 71 -24 24 -5 27 28 4z m122 -31 c13 -27 26
-74 30 -105 5 -54 4 -58 -15 -58 -18 0 -20 5 -17 44 4 44 -21 109 -56 149 -14
16 -13 17 9 17 20 0 30 -10 49 -47z m100 43 c0 -3 -4 -8 -10 -11 -5 -3 -10 -1
-10 4 0 6 5 11 10 11 6 0 10 -2 10 -4z m-1400 -97 c0 -18 -2 -20 -15 -9 -13
11 -13 15 -3 21 18 12 18 12 18 -12z m30 -94 c0 -9 -9 -15 -22 -15 -21 0 -21
0 -2 15 24 18 24 18 24 0z m-550 -5 c0 -5 -5 -10 -11 -10 -5 0 -7 5 -4 10 3 6
8 10 11 10 2 0 4 -4 4 -10z m720 0 c0 -5 -8 -10 -17 -10 -15 0 -16 2 -3 10 19
12 20 12 20 0z m220 -10 c-8 -5 -17 -7 -19 -4 -3 3 1 9 9 14 8 5 17 7 19 4 3
-3 -1 -9 -9 -14z m260 10 c0 -5 -5 -10 -11 -10 -5 0 -7 5 -4 10 3 6 8 10 11
10 2 0 4 -4 4 -10z"/>
<path d="M1602 2560 c-1 -3 -36 -135 -76 -295 l-75 -290 47 -3 c30 -2 48 1 51
9 5 15 35 45 50 50 8 3 11 77 8 269 -1 146 -3 263 -5 260z"/>
<path d="M1620 2301 l0 -262 36 -35 c30 -28 45 -34 79 -34 l43 0 -75 292 c-41
161 -76 295 -79 297 -2 2 -4 -114 -4 -258z"/>
<path d="M1473 2350 c-119 -42 -206 -129 -252 -254 l-22 -58 38 7 c21 4 38 8
39 8 50 116 115 189 198 223 37 16 46 24 51 52 3 19 5 35 3 37 -2 2 -26 -5
-55 -15z"/>
<path d="M1465 2256 c-50 -23 -114 -85 -141 -138 -14 -28 -24 -52 -22 -53 2
-2 40 5 85 17 l81 20 16 66 c9 37 19 75 22 85 6 20 -1 21 -41 3z"/>
<path d="M1720 2258 c0 -14 38 -160 42 -163 10 -6 164 -42 167 -39 7 6 -21 63
-50 104 -44 60 -159 132 -159 98z"/>
<path d="M1220 2025 l-205 -53 211 -1 212 -1 5 29 c3 16 9 40 13 55 8 35 10
35 -236 -29z"/>
<path d="M1576 1994 c-23 -22 -20 -60 6 -78 30 -21 44 -20 68 4 36 36 16 90
-35 90 -13 0 -31 -7 -39 -16z"/>
<path d="M1020 1944 c97 -27 436 -112 437 -110 2 1 -3 28 -9 59 l-12 57 -216
-1 c-118 -1 -208 -3 -200 -5z"/>
<path d="M1460 1929 c0 -23 137 -569 145 -577 3 -3 5 116 5 264 l0 269 -30 17
c-17 9 -30 24 -30 33 0 11 -11 15 -45 15 -39 0 -45 -3 -45 -21z"/>
<path d="M1672 1926 c-6 -13 -20 -27 -31 -31 -21 -6 -21 -12 -20 -273 0 -164
4 -259 9 -245 7 18 112 421 140 541 l8 32 -47 0 c-41 0 -49 -4 -59 -24z"/>
<path d="M1210 1860 c0 -39 50 -132 102 -186 36 -38 76 -68 123 -90 77 -37 95
-41 95 -20 0 36 -20 65 -55 76 -51 17 -146 109 -174 169 -18 36 -32 53 -54 61
-38 13 -37 13 -37 -10z"/>
<path d="M1848 1845 c-42 -11 -79 -23 -83 -27 -7 -7 -45 -145 -45 -166 0 -19
74 22 125 70 41 37 91 118 83 136 -1 4 -38 -2 -80 -13z"/>
<path d="M1300 1842 c0 -18 59 -99 96 -132 37 -34 100 -67 109 -58 6 6 -32
149 -42 158 -8 7 -133 40 -153 40 -5 0 -10 -4 -10 -8z"/>
</g>
</svg>
